# xmcd
#
# Track frame offsets:
#	150
#	16910
#	29685
#	50060
#	68067
#	85337
#	98479
#	123435
#	137060
#	149687
#	167342
#
# Disc length: 2392 seconds
#
# Revision: 0
# Processed by: cddbd v1.4PL0 Copyright (c) Steve Scherf et al.
# Submitted via: EasyCDDAExtractor 4.5.0.2
#
DISCID=9509560b
DTITLE=John Landry - Forever Took To Long
DYEAR=1900
DGENRE=Country
TTITLE0=There You Were
TTITLE1=Long Gone And Forgotten
TTITLE2=Wrong Again
TTITLE3=My Heart Says Yes (But The Hurt Says No)
TTITLE4=Same Old Love
TTITLE5=Bit By Bit
TTITLE6=Forever Took To Long
TTITLE7=Which Way Is Love
TTITLE8=Honky Tonk Hell
TTITLE9=Fantasy Island
TTITLE10=The Cowgirl (Your Moma Warned Me About)
EXTD=
EXTT0=
EXTT1=
EXTT2=
EXTT3=
EXTT4=
EXTT5=
EXTT6=
EXTT7=
EXTT8=
EXTT9=
EXTT10=
PLAYORDER=
